<mxfile host="app.diagrams.net" agent="Mozilla/5.0 (Windows NT 10.0; Win64; x64) AppleWebKit/537.36 (KHTML, like Gecko) Chrome/140.0.0.0 Safari/537.36" version="28.2.4">
  <diagram name="PÃ¡gina-1" id="g_2L8a4dUFEPVdWc10Bj">
    <mxGraphModel dx="552" dy="300" grid="1" gridSize="10" guides="1" tooltips="1" connect="1" arrows="1" fold="1" page="1" pageScale="1" pageWidth="827" pageHeight="1169" math="0" shadow="0">
      <root>
        <mxCell id="0" />
        <mxCell id="1" parent="0" />
        <mxCell id="uRhun_1Gw-rtw0TiDXNh-2" style="edgeStyle=orthogonalEdgeStyle;rounded=0;orthogonalLoop=1;jettySize=auto;html=1;strokeColor=default;curved=1;shape=wire;dashed=1;endArrow=none;endFill=0;exitX=0.5;exitY=0;exitDx=0;exitDy=0;" edge="1" parent="1" source="uRhun_1Gw-rtw0TiDXNh-11" target="uRhun_1Gw-rtw0TiDXNh-3">
          <mxGeometry relative="1" as="geometry">
            <mxPoint x="170" y="40" as="targetPoint" />
            <mxPoint x="130" y="90" as="sourcePoint" />
          </mxGeometry>
        </mxCell>
        <mxCell id="uRhun_1Gw-rtw0TiDXNh-3" value="&lt;font style=&quot;font-size: 8px;&quot;&gt;codEstudiante&lt;/font&gt;" style="ellipse;whiteSpace=wrap;html=1;" vertex="1" parent="1">
          <mxGeometry x="100" y="40" width="60" height="20" as="geometry" />
        </mxCell>
        <mxCell id="uRhun_1Gw-rtw0TiDXNh-10" style="edgeStyle=orthogonalEdgeStyle;rounded=0;orthogonalLoop=1;jettySize=auto;html=1;entryX=0.5;entryY=1;entryDx=0;entryDy=0;endArrow=none;endFill=0;exitX=0.5;exitY=0;exitDx=0;exitDy=0;" edge="1" parent="1" source="uRhun_1Gw-rtw0TiDXNh-12" target="uRhun_1Gw-rtw0TiDXNh-7">
          <mxGeometry relative="1" as="geometry">
            <mxPoint x="374" y="90" as="sourcePoint" />
          </mxGeometry>
        </mxCell>
        <mxCell id="uRhun_1Gw-rtw0TiDXNh-7" value="" style="ellipse;whiteSpace=wrap;html=1;" vertex="1" parent="1">
          <mxGeometry x="344" y="50" width="60" height="20" as="geometry" />
        </mxCell>
        <mxCell id="uRhun_1Gw-rtw0TiDXNh-11" value="USUARIO" style="rounded=0;whiteSpace=wrap;html=1;" vertex="1" parent="1">
          <mxGeometry x="70" y="90" width="120" height="30" as="geometry" />
        </mxCell>
        <mxCell id="uRhun_1Gw-rtw0TiDXNh-12" value="CONSULTAS" style="rounded=0;whiteSpace=wrap;html=1;" vertex="1" parent="1">
          <mxGeometry x="314" y="90" width="120" height="30" as="geometry" />
        </mxCell>
        <mxCell id="uRhun_1Gw-rtw0TiDXNh-14" style="edgeStyle=orthogonalEdgeStyle;rounded=0;orthogonalLoop=1;jettySize=auto;html=1;entryX=0;entryY=0.5;entryDx=0;entryDy=0;endArrow=none;endFill=0;" edge="1" parent="1" source="uRhun_1Gw-rtw0TiDXNh-13" target="uRhun_1Gw-rtw0TiDXNh-12">
          <mxGeometry relative="1" as="geometry" />
        </mxCell>
        <mxCell id="uRhun_1Gw-rtw0TiDXNh-15" style="edgeStyle=orthogonalEdgeStyle;rounded=0;orthogonalLoop=1;jettySize=auto;html=1;entryX=1;entryY=0.5;entryDx=0;entryDy=0;endArrow=none;endFill=0;" edge="1" parent="1" source="uRhun_1Gw-rtw0TiDXNh-13" target="uRhun_1Gw-rtw0TiDXNh-11">
          <mxGeometry relative="1" as="geometry" />
        </mxCell>
        <mxCell id="uRhun_1Gw-rtw0TiDXNh-13" value="1:N" style="shape=rhombus;perimeter=rhombusPerimeter;whiteSpace=wrap;html=1;align=center;" vertex="1" parent="1">
          <mxGeometry x="230" y="93.75" width="50" height="22.5" as="geometry" />
        </mxCell>
      </root>
    </mxGraphModel>
  </diagram>
</mxfile>
